<?xml version="1.0" standalone="no"?><!DOCTYPE svg PUBLIC "-//W3C//DTD SVG 1.1//EN" "http://www.w3.org/Graphics/SVG/1.1/DTD/svg11.dtd"><svg t="1535965538808" class="icon" style="" viewBox="0 0 1024 1024" version="1.1" xmlns="http://www.w3.org/2000/svg" p-id="1318" xmlns:xlink="http://www.w3.org/1999/xlink" width="128" height="128"><defs><style type="text/css"></style></defs><path d="M308.63263 636.730647c0-57.075504 56.242914-103.356043 125.606302-103.356043s125.606303 46.251829 125.606303 103.356043c0 57.075504-56.242914 103.356043-125.606303 103.356044s-125.606303-46.280539-125.606302-103.356044z m143.55006-17.226007a17.570527 17.570527 0 0 0 17.943757-17.226007c0-9.503014-8.010093-17.226007-17.943757-17.226007a17.599237 17.599237 0 0 0-17.943758 17.226007c0 9.503014 8.038803 17.226007 17.943758 17.226007z m-71.77503-17.226007c-19.809908 0-35.887515 15.417276-35.887515 34.452014s16.077607 34.452014 35.887515 34.452015 35.887515-15.417276 35.887515-34.452015-16.077607-34.452014-35.887515-34.452014z" fill="#A0A0A0" p-id="1319"></path><path d="M183.026327 636.730647c0-95.14498 112.485827-172.260072 251.212605-172.260072s251.212605 77.115092 251.212606 172.260072-112.457117 172.260072-251.212606 172.260073c-138.726778 0-251.212605-77.115092-251.212605-172.260073z m651.200493-27.877421c-7.120083-68.387249-64.654947-103.786694-136.889337-113.835198 30.978103-30.777133 43.955028-73.296661 13.551126-107.518995-42.490818-47.77346-139.702919-19.522808-208.434688 14.642106 15.589537-29.399052 35.198475-84.493565-12.230465-118.94558-87.967477-63.908487-408.859282 130.630555-408.859282 343.199484 0 159.914767 222.531303 230.110747 349.257297 230.110747 177.284324 0 419.424566-95.54692 403.605349-247.652564zM906.08798 443.110326c-1.636471 0-3.272941-0.11484-4.909412-0.31581-18.632798-2.469061-31.581013-18.345698-28.882272-35.485575 8.211063-52.309642-7.837833-101.375053-44.041158-134.649957-34.107494-31.322623-82.311605-46.165699-135.568677-41.715647-18.690218 1.550341-35.313315-11.139485-37.035916-28.394202-1.665181-17.226007 12.144335-32.471024 30.891973-34.021364 73.985701-6.143943 141.281969 15.101466 189.91673 59.802955 51.563182 47.37152 74.617321 115.844899 63.334287 187.907029-2.440351 15.589537-17.025037 26.872571-33.705555 26.872571z" fill="#A0A0A0" p-id="1320"></path><path d="M794.750554 420.113606a28.365492 28.365492 0 0 1-4.909412-0.43065c-13.924356-2.354221-23.08285-14.125326-20.384109-26.298371 2.985841-13.378866 5.311352-38.155606-12.402725-53.601592-14.010486-12.230465-34.825245-13.407576-49.668321-12.287885-14.412426 1.11969-26.614181-8.067513-27.848712-20.412819-1.234531-12.345305 9.244624-23.2264 23.36995-24.31738 36.576555-2.784871 68.674349 6.201363 90.522668 25.26481 25.580621 22.307679 34.997505 55.668713 26.556761 93.88174-2.382931 10.766255-13.149186 18.202148-25.2361 18.202147z" fill="#A0A0A0" p-id="1321"></path></svg>